<mxfile host="app.diagrams.net" agent="Mozilla/5.0 (Windows NT 10.0; Win64; x64; rv:138.0) Gecko/20100101 Firefox/138.0" version="27.0.5">
  <diagram name="Pagina-1" id="OkiZJezIaRGb1EI5ZFoo">
    <mxGraphModel dx="1426" dy="728" grid="1" gridSize="10" guides="1" tooltips="1" connect="1" arrows="1" fold="1" page="1" pageScale="1" pageWidth="827" pageHeight="1169" math="0" shadow="0">
      <root>
        <mxCell id="0" />
        <mxCell id="1" parent="0" />
        <mxCell id="D9-VQ-neRnygr_jy2GSE-8" value="" style="edgeStyle=orthogonalEdgeStyle;rounded=0;orthogonalLoop=1;jettySize=auto;html=1;" parent="1" source="D9-VQ-neRnygr_jy2GSE-1" target="D9-VQ-neRnygr_jy2GSE-7" edge="1">
          <mxGeometry relative="1" as="geometry">
            <Array as="points">
              <mxPoint x="95" y="20" />
            </Array>
          </mxGeometry>
        </mxCell>
        <mxCell id="D9-VQ-neRnygr_jy2GSE-20" value="" style="edgeStyle=orthogonalEdgeStyle;rounded=0;orthogonalLoop=1;jettySize=auto;html=1;" parent="1" source="D9-VQ-neRnygr_jy2GSE-1" target="D9-VQ-neRnygr_jy2GSE-19" edge="1">
          <mxGeometry relative="1" as="geometry">
            <Array as="points">
              <mxPoint x="170" y="80" />
              <mxPoint x="170" y="80" />
            </Array>
          </mxGeometry>
        </mxCell>
        <mxCell id="neO-nskCJit6JNOFJm0J-4" value="" style="edgeStyle=orthogonalEdgeStyle;rounded=0;orthogonalLoop=1;jettySize=auto;html=1;" edge="1" parent="1" source="D9-VQ-neRnygr_jy2GSE-1" target="neO-nskCJit6JNOFJm0J-3">
          <mxGeometry relative="1" as="geometry">
            <Array as="points">
              <mxPoint x="95" y="140" />
              <mxPoint x="210" y="140" />
            </Array>
          </mxGeometry>
        </mxCell>
        <mxCell id="D9-VQ-neRnygr_jy2GSE-1" value="&lt;div&gt;personale del terminal&lt;/div&gt;&lt;div&gt;&lt;br&gt;&lt;/div&gt;" style="shape=umlActor;verticalLabelPosition=bottom;verticalAlign=top;html=1;outlineConnect=0;" parent="1" vertex="1">
          <mxGeometry x="80" y="60" width="30" height="60" as="geometry" />
        </mxCell>
        <mxCell id="D9-VQ-neRnygr_jy2GSE-7" value="emette un buono di consegna" style="rounded=1;whiteSpace=wrap;html=1;verticalAlign=top;" parent="1" vertex="1">
          <mxGeometry x="150" y="10" width="120" height="60" as="geometry" />
        </mxCell>
        <mxCell id="D9-VQ-neRnygr_jy2GSE-11" value="" style="edgeStyle=orthogonalEdgeStyle;rounded=0;orthogonalLoop=1;jettySize=auto;html=1;" parent="1" source="D9-VQ-neRnygr_jy2GSE-9" target="D9-VQ-neRnygr_jy2GSE-10" edge="1">
          <mxGeometry relative="1" as="geometry" />
        </mxCell>
        <mxCell id="D9-VQ-neRnygr_jy2GSE-9" value="autotrasportatore" style="shape=umlActor;verticalLabelPosition=bottom;verticalAlign=top;html=1;outlineConnect=0;" parent="1" vertex="1">
          <mxGeometry x="70" y="290" width="30" height="60" as="geometry" />
        </mxCell>
        <mxCell id="D9-VQ-neRnygr_jy2GSE-10" value="visualizza il buono di consegna" style="rounded=1;whiteSpace=wrap;html=1;verticalAlign=top;" parent="1" vertex="1">
          <mxGeometry x="135" y="290" width="120" height="60" as="geometry" />
        </mxCell>
        <mxCell id="D9-VQ-neRnygr_jy2GSE-14" value="" style="edgeStyle=orthogonalEdgeStyle;rounded=0;orthogonalLoop=1;jettySize=auto;html=1;" parent="1" source="D9-VQ-neRnygr_jy2GSE-12" target="D9-VQ-neRnygr_jy2GSE-13" edge="1">
          <mxGeometry relative="1" as="geometry" />
        </mxCell>
        <mxCell id="D9-VQ-neRnygr_jy2GSE-16" value="" style="edgeStyle=orthogonalEdgeStyle;rounded=0;orthogonalLoop=1;jettySize=auto;html=1;" parent="1" source="D9-VQ-neRnygr_jy2GSE-12" target="D9-VQ-neRnygr_jy2GSE-15" edge="1">
          <mxGeometry relative="1" as="geometry" />
        </mxCell>
        <mxCell id="D9-VQ-neRnygr_jy2GSE-18" value="" style="edgeStyle=orthogonalEdgeStyle;rounded=0;orthogonalLoop=1;jettySize=auto;html=1;" parent="1" source="D9-VQ-neRnygr_jy2GSE-12" target="D9-VQ-neRnygr_jy2GSE-17" edge="1">
          <mxGeometry relative="1" as="geometry">
            <Array as="points">
              <mxPoint x="675" y="230" />
            </Array>
          </mxGeometry>
        </mxCell>
        <mxCell id="neO-nskCJit6JNOFJm0J-6" value="" style="edgeStyle=orthogonalEdgeStyle;rounded=0;orthogonalLoop=1;jettySize=auto;html=1;" edge="1" parent="1" source="D9-VQ-neRnygr_jy2GSE-12" target="neO-nskCJit6JNOFJm0J-5">
          <mxGeometry relative="1" as="geometry" />
        </mxCell>
        <mxCell id="neO-nskCJit6JNOFJm0J-7" value="" style="edgeStyle=orthogonalEdgeStyle;rounded=0;orthogonalLoop=1;jettySize=auto;html=1;" edge="1" parent="1" source="D9-VQ-neRnygr_jy2GSE-12" target="neO-nskCJit6JNOFJm0J-5">
          <mxGeometry relative="1" as="geometry" />
        </mxCell>
        <mxCell id="neO-nskCJit6JNOFJm0J-8" value="" style="edgeStyle=orthogonalEdgeStyle;rounded=0;orthogonalLoop=1;jettySize=auto;html=1;" edge="1" parent="1" source="D9-VQ-neRnygr_jy2GSE-12" target="neO-nskCJit6JNOFJm0J-5">
          <mxGeometry relative="1" as="geometry" />
        </mxCell>
        <mxCell id="neO-nskCJit6JNOFJm0J-9" style="edgeStyle=orthogonalEdgeStyle;rounded=0;orthogonalLoop=1;jettySize=auto;html=1;" edge="1" parent="1" source="D9-VQ-neRnygr_jy2GSE-12">
          <mxGeometry relative="1" as="geometry">
            <mxPoint x="740" y="120" as="targetPoint" />
          </mxGeometry>
        </mxCell>
        <mxCell id="D9-VQ-neRnygr_jy2GSE-12" value="cliente" style="shape=umlActor;verticalLabelPosition=bottom;verticalAlign=top;html=1;outlineConnect=0;" parent="1" vertex="1">
          <mxGeometry x="660" y="60" width="30" height="60" as="geometry" />
        </mxCell>
        <mxCell id="D9-VQ-neRnygr_jy2GSE-13" value="visualizza le polizze e richiede un buono" style="rounded=1;whiteSpace=wrap;html=1;verticalAlign=top;" parent="1" vertex="1">
          <mxGeometry x="495" y="15" width="120" height="60" as="geometry" />
        </mxCell>
        <mxCell id="D9-VQ-neRnygr_jy2GSE-15" value="associa un ritirante a un camion" style="rounded=1;whiteSpace=wrap;html=1;verticalAlign=top;" parent="1" vertex="1">
          <mxGeometry x="490" y="110" width="120" height="50" as="geometry" />
        </mxCell>
        <mxCell id="D9-VQ-neRnygr_jy2GSE-17" value="paga la fattura relativa all&#39;immagazzinaggio (non sempre)" style="rounded=1;whiteSpace=wrap;html=1;verticalAlign=top;" parent="1" vertex="1">
          <mxGeometry x="617.5" y="180" width="135" height="60" as="geometry" />
        </mxCell>
        <mxCell id="D9-VQ-neRnygr_jy2GSE-19" value="registra il ritiro della merce" style="rounded=1;whiteSpace=wrap;html=1;verticalAlign=top;" parent="1" vertex="1">
          <mxGeometry x="162.5" y="75" width="120" height="60" as="geometry" />
        </mxCell>
        <mxCell id="D9-VQ-neRnygr_jy2GSE-24" value="" style="edgeStyle=orthogonalEdgeStyle;rounded=0;orthogonalLoop=1;jettySize=auto;html=1;" parent="1" source="D9-VQ-neRnygr_jy2GSE-22" target="D9-VQ-neRnygr_jy2GSE-23" edge="1">
          <mxGeometry relative="1" as="geometry" />
        </mxCell>
        <mxCell id="D9-VQ-neRnygr_jy2GSE-26" value="" style="edgeStyle=orthogonalEdgeStyle;rounded=0;orthogonalLoop=1;jettySize=auto;html=1;" parent="1" source="D9-VQ-neRnygr_jy2GSE-22" target="D9-VQ-neRnygr_jy2GSE-25" edge="1">
          <mxGeometry relative="1" as="geometry">
            <Array as="points">
              <mxPoint x="685" y="360" />
              <mxPoint x="548" y="360" />
            </Array>
          </mxGeometry>
        </mxCell>
        <mxCell id="D9-VQ-neRnygr_jy2GSE-22" value="utente" style="shape=umlActor;verticalLabelPosition=bottom;verticalAlign=top;html=1;outlineConnect=0;" parent="1" vertex="1">
          <mxGeometry x="670" y="280" width="30" height="60" as="geometry" />
        </mxCell>
        <mxCell id="D9-VQ-neRnygr_jy2GSE-25" value="si autentica" style="rounded=1;whiteSpace=wrap;html=1;verticalAlign=top;" parent="1" vertex="1">
          <mxGeometry x="480" y="370" width="120" height="30" as="geometry" />
        </mxCell>
        <mxCell id="D9-VQ-neRnygr_jy2GSE-27" value="" style="edgeStyle=orthogonalEdgeStyle;rounded=0;orthogonalLoop=1;jettySize=auto;html=1;" parent="1" source="D9-VQ-neRnygr_jy2GSE-22" target="D9-VQ-neRnygr_jy2GSE-23" edge="1">
          <mxGeometry relative="1" as="geometry">
            <mxPoint x="670" y="310" as="sourcePoint" />
            <mxPoint x="585" y="420" as="targetPoint" />
          </mxGeometry>
        </mxCell>
        <mxCell id="D9-VQ-neRnygr_jy2GSE-23" value="si registra" style="rounded=1;whiteSpace=wrap;html=1;verticalAlign=top;" parent="1" vertex="1">
          <mxGeometry x="480" y="320" width="120" height="30" as="geometry" />
        </mxCell>
        <mxCell id="neO-nskCJit6JNOFJm0J-3" value="visualizza lo storico dei ritiri" style="rounded=1;whiteSpace=wrap;html=1;verticalAlign=top;" vertex="1" parent="1">
          <mxGeometry x="150" y="170" width="120" height="60" as="geometry" />
        </mxCell>
        <mxCell id="neO-nskCJit6JNOFJm0J-5" value="visualizza lo stato delle richieste buoni" style="rounded=1;whiteSpace=wrap;html=1;verticalAlign=top;" vertex="1" parent="1">
          <mxGeometry x="725" y="15" width="120" height="60" as="geometry" />
        </mxCell>
        <mxCell id="neO-nskCJit6JNOFJm0J-10" value="registra un camion" style="rounded=1;whiteSpace=wrap;html=1;" vertex="1" parent="1">
          <mxGeometry x="740" y="105" width="120" height="30" as="geometry" />
        </mxCell>
      </root>
    </mxGraphModel>
  </diagram>
</mxfile>
